HIERARCHY
ROOT hip
{
	OFFSET 0.000000 0.000000 0.000000 
	CHANNELS 6 Xposition Yposition Zposition Xrotation Zrotation Yrotation
	JOINT abdomen
	{
		OFFSET 0.000000 3.402643 0.000000 
		CHANNELS 3 Xrotation Zrotation Yrotation
		JOINT chest
		{
			OFFSET 0.000000 8.438565 -0.680529 
			CHANNELS 3 Xrotation Zrotation Yrotation
			JOINT neck
			{
				OFFSET 0.000000 10.207942 -0.272212 
				CHANNELS 3 Xrotation Zrotation Yrotation
				JOINT head
				{
					OFFSET 0.000000 3.130431 0.000000 
					CHANNELS 3 Xrotation Zrotation Yrotation
					End Site
					{
						OFFSET 0.000000 3.130435 0.000000 
					}
				}
			}
			JOINT lCollar
			{
				OFFSET 3.470700 6.669187 -0.816635 
				CHANNELS 3 Yrotation Zrotation Xrotation
				JOINT lShldr
				{
					OFFSET 3.198488 0.000000 0.000000 
					CHANNELS 3 Zrotation Yrotation Xrotation
					JOINT lForeArm
					{
						OFFSET 10.139888 0.000000 0.000000 
						CHANNELS 3 Yrotation Zrotation Xrotation
						JOINT lHand
						{
							OFFSET 8.370511 0.000000 0.000000 
							CHANNELS 3 Zrotation Yrotation Xrotation
							End Site
							{
								OFFSET 4.083176 0.000000 0.000000 
							}
						}
					}
				}
			}
			JOINT rCollar
			{
				OFFSET -3.470700 6.669187 -0.816635 
				CHANNELS 3 Yrotation Zrotation Xrotation
				JOINT rShldr
				{
					OFFSET -3.198488 0.000000 0.000000 
					CHANNELS 3 Zrotation Yrotation Xrotation
					JOINT rForeArm
					{
						OFFSET -10.139888 0.000000 0.000000 
						CHANNELS 3 Yrotation Zrotation Xrotation
						JOINT rHand
						{
							OFFSET -8.370511 0.000000 0.000000 
							CHANNELS 3 Zrotation Yrotation Xrotation
							End Site
							{
								OFFSET -4.083176 0.000000 0.000000 
							}
						}
					}
				}
			}
		}
	}
	JOINT lThigh
	{
		OFFSET 5.308129 -1.633274 1.361059 
		CHANNELS 3 Xrotation Zrotation Yrotation
		JOINT lShin
		{
			OFFSET -2.041588 -20.007561 0.000000 
			CHANNELS 3 Xrotation Zrotation Yrotation
			JOINT lFoot
			{
				OFFSET 0.000000 -19.190928 -1.224953 
				CHANNELS 3 Xrotation Yrotation Zrotation
				End Site
				{
					OFFSET 0.000000 -2.449906 4.627600 
				}
			}
		}
	}
	JOINT rThigh
	{
		OFFSET -5.308129 -1.633274 1.361059 
		CHANNELS 3 Xrotation Zrotation Yrotation
		JOINT rShin
		{
			OFFSET 2.041588 -20.007561 0.000000 
			CHANNELS 3 Xrotation Zrotation Yrotation
			JOINT rFoot
			{
				OFFSET 0.000000 -19.190928 -1.224953 
				CHANNELS 3 Xrotation Yrotation Zrotation
				End Site
				{
					OFFSET 0.000000 -2.449906 4.627600 
				}
			}
		}
	}
}
MOTION
Frames: 10
Frame Time: 0.016667
22.662189 54.218163 -3.774419 0.297511 -7.523450 -92.891228 29.027245 1.048931 0.229447 -1.389904 0.322250 -0.830069 -12.343790 -0.173803 0.026296 8.579960 7.559983 -67.160278 -3.494986 0.777676 0.042399 -65.030937 16.022051 -17.621643 -13.491372 -5.000000 45.000000 -31.423395 15.843842 26.200975 12.123349 -3.518155 0.184673 70.429916 -15.911507 -19.719324 8.554156 5.000000 45.000000 16.651785 -14.934212 27.742195 11.400649 12.076082 12.321126 -1.593564 -4.038225 -0.034895 4.113842 10.214918 -8.738369 9.235682 -8.004692 4.535704 -2.174956 3.991809 -0.034921 2.832187 -7.964841 6.451031 
22.664961 54.216778 -3.774310 0.277094 -7.492676 -92.889687 29.007681 1.039859 0.225970 -1.389808 0.312485 -0.810538 -12.334012 -0.144836 0.021913 8.566326 7.526961 -67.118454 -3.514517 0.777676 0.042399 -65.021248 16.025005 -17.618950 -13.517653 -5.000000 45.000000 -31.451424 15.878470 26.203426 12.133022 -3.488898 0.183158 70.414063 -15.937169 -19.738054 8.579417 5.000000 45.000000 16.633091 -14.902071 27.776142 11.366169 12.079945 12.279765 -1.593360 -4.047504 0.004457 4.117560 10.198791 -8.732949 9.208949 -8.007070 4.525735 -2.185018 3.953271 -0.024441 2.622641 -7.983480 6.444045 
22.667732 54.215397 -3.774194 0.266506 -7.461423 -92.889351 28.987991 1.021929 0.218380 -1.389615 0.292954 -0.800774 -12.334002 -0.115869 0.017531 8.543568 7.497622 -67.079216 -3.524282 0.777676 0.042399 -65.001877 16.030918 -17.613558 -13.549775 -5.000000 45.000000 -31.492226 15.910226 26.208754 12.132930 -3.459640 0.181644 70.409424 -15.953644 -19.771843 8.604685 5.000000 45.000000 16.619406 -14.864324 27.791977 11.345160 12.059812 12.245828 -1.593950 -4.056797 0.034046 4.106511 10.211538 -8.717867 9.177827 -8.014898 4.514304 -2.192088 3.938197 -0.024581 2.465420 -7.956984 6.435598 
22.670734 54.215397 -3.779622 0.267101 -7.444922 -92.904831 28.977825 0.999648 0.198794 -1.370064 0.312487 -0.781242 -12.382822 -0.086902 0.013148 8.608238 7.514946 -66.898605 -3.494843 0.758766 0.031647 -64.973488 16.009109 -17.608994 -13.581980 -5.000000 45.000000 -31.452154 15.945642 26.221167 12.122473 -3.422681 0.170094 70.352119 -15.942584 -19.759129 8.612727 5.000000 45.000000 16.649109 -14.857011 27.760933 11.344851 12.059529 12.265708 -1.613924 -4.060058 0.016058 4.090340 10.241158 -8.706295 9.138130 -7.985521 4.528109 -2.154675 3.902332 -0.039968 2.448859 -7.967424 6.441059 
22.673735 54.215397 -3.785053 0.268084 -7.437976 -92.922539 28.967915 0.969820 0.197207 -1.340692 0.322253 -0.761711 -12.431646 -0.067590 0.010226 8.661868 7.528865 -66.728424 -3.465537 0.739256 0.030642 -64.945770 15.978459 -17.608553 -13.603962 -5.000000 45.000000 -31.418116 15.968763 26.228497 12.112593 -3.383668 0.168074 70.305618 -15.931524 -19.755564 8.627070 5.000000 45.000000 16.669865 -14.845126 27.732405 11.333820 12.068102 12.286828 -1.639970 -4.071668 -0.011404 4.083313 10.307727 -8.684485 9.108780 -7.974628 4.539407 -2.124835 3.873398 -0.056325 2.429302 -7.920227 6.498545 
22.678328 54.214561 -3.788745 0.256781 -7.411712 -92.909355 28.967716 0.952498 0.189954 -1.331068 0.332018 -0.771476 -12.451175 -0.038623 0.005844 8.688790 7.519304 -66.591370 -3.455896 0.738665 0.040389 -64.925713 15.971376 -17.598530 -13.620089 -5.000000 45.000000 -31.381674 15.951497 26.239239 12.102716 -3.344657 0.166053 70.268677 -15.917167 -19.754709 8.635092 5.000000 45.000000 16.669172 -14.855221 27.676367 11.310406 12.074700 12.287652 -1.632571 -4.096303 -0.030155 4.086973 10.291622 -8.679169 9.081583 -7.977810 4.519348 -2.104367 3.850442 -0.073613 2.418009 -7.878844 6.523270 
22.683985 54.213173 -3.791288 0.234495 -7.381759 -92.878853 28.967474 0.925636 0.178305 -1.331146 0.322251 -0.791007 -12.441405 -0.009656 0.001459 8.681125 7.493011 -66.480797 -3.465668 0.748418 0.040891 -64.921608 15.958926 -17.569624 -13.620089 -5.000000 45.000000 -31.333086 15.913313 26.250191 12.102605 -3.305646 0.164033 70.232552 -15.915322 -19.759689 8.647100 5.000000 45.000000 16.651220 -14.858722 27.601147 11.254766 12.057056 12.261855 -1.632427 -4.086176 -0.040246 4.119795 10.312305 -8.663162 9.048753 -7.973102 4.479691 -2.088073 3.848570 -0.062394 2.407662 -7.885774 6.499670 
22.690149 54.212067 -3.792698 0.212024 -7.353159 -92.843498 28.957520 0.920206 0.165053 -1.331214 0.312485 -0.810539 -12.451178 0.027506 -0.014038 8.682819 7.461196 -66.357124 -3.465675 0.758171 0.041394 -64.919548 15.941785 -17.556244 -13.620089 -5.000000 45.000000 -31.291245 15.884512 26.266455 12.092731 -3.266634 0.162013 70.205551 -15.919368 -19.766735 8.661401 5.000000 45.000000 16.625853 -14.870674 27.558077 11.194752 12.056276 12.219674 -1.620300 -4.090662 -0.031759 4.119039 10.276910 -8.633859 8.999295 -7.972425 4.459653 -2.055636 3.832771 -0.059714 2.428797 -7.867956 6.537956 
22.698347 54.212067 -3.789583 0.188583 -7.319128 -92.796143 28.986736 0.904543 0.148842 -1.341033 0.312484 -0.820304 -12.490249 0.056473 -0.018421 8.690029 7.403981 -66.217873 -3.455903 0.748418 0.040891 -64.908485 15.918750 -17.544283 -13.640615 -5.000000 45.000000 -31.248354 15.904082 26.314407 12.073172 -3.256879 0.161507 70.185631 -15.913462 -19.755575 8.691273 5.000000 45.000000 16.585939 -14.881265 27.557306 11.118927 12.029178 12.201518 -1.582986 -4.074442 -0.053984 4.142133 10.281837 -8.624297 8.980374 -8.012506 4.414421 -2.058582 3.875836 -0.051509 2.528904 -7.861764 6.534098 
22.706547 54.212067 -3.786471 0.175392 -7.293964 -92.751305 29.006157 0.898704 0.136347 -1.350905 0.312483 -0.830069 -12.539083 0.075785 -0.021343 8.698101 7.348532 -66.068123 -3.436365 0.738665 0.040389 -64.885689 15.903332 -17.516813 -13.661155 -5.000000 45.000000 -31.205441 15.923599 26.359722 12.053614 -3.247123 0.161001 70.165276 -15.916730 -19.738443 8.717178 5.000000 45.000000 16.559330 -14.888329 27.557642 11.051045 12.009129 12.155405 -1.553316 -4.054464 -0.056772 4.160275 10.268284 -8.619933 8.922362 -8.022526 4.373243 -2.007602 3.892573 -0.019290 2.659217 -7.958698 6.517216 
